# xmcd
#
# Track frame offsets: 
#        150
#        14420
#        30173
#        46180
#        63235
#        80663
#        93572
#        107702
#        122775
#        138510
#        151988
#        167877
#        185702
#
# Disc length: 2697 seconds
#
# Revision: 1
# Processed by: cddbd v1.5.2PL0 Copyright (c) Steve Scherf et al.
# Submitted via: ExactAudioCopy v0.99pb4
#
DISCID=a80a870d
DTITLE=Rosanna Rocci - Amore Amore
DYEAR=1998
DGENRE=Schlager
TTITLE0=Amore Amore
TTITLE1=Bäng Bäng
TTITLE2=Es gibt ein zweites Leben
TTITLE3=Jetzt bist du da
TTITLE4=Aber bitte mit Herz
TTITLE5=Aber wenn ich dich seh'
TTITLE6=Alles Okay (Tutto va Bene)
TTITLE7=Questo e l'amore (Duett mitt Petra Frey)
TTITLE8=Unsterbliche Liebe
TTITLE9=Liebe lebt
TTITLE10=Hab mich verliebt in dich
TTITLE11=Ritornerai
TTITLE12=Mama Mia (Englische version)
EXTD=Tracks 1-4: Peer Gynt Suite No. 1, Op. 46\nBudapest Philharmonic 
EXTD=Orchestra\nJanos Sandor, conductor\n\nTracks 5-8: Peer Gynt Suite
EXTD=No. 2, Op. 55\nWiener Symphoniker\nYuri Ahronovitch, conductor\n
EXTD=\nTracks 9-11: Piano Concerto in A minor, Op. 16\nJenö Jando, pia
EXTD=no\nBudapest Philharmonic Orchestra\nJanos Sandor, conductor\n\nD
EXTD=elta Music, Inc. 1989\nLaserLight 15 617
EXTT0=
EXTT1=
EXTT2=
EXTT3=
EXTT4=
EXTT5=
EXTT6=
EXTT7=
EXTT8=
EXTT9=
EXTT10=
EXTT11=
EXTT12=
PLAYORDER=
